<svg width="768" height="768" viewBox="0.18 0.00 767.64 768.00" xmlns="http://www.w3.org/2000/svg">
  <path d="M383.82,768.00 C406.70,768.00 425.30,751.20 428.51,727.24 C462.84,488.76 495.73,455.15 725.99,429.41 C749.59,426.19 767.82,406.88 767.82,384.00 C767.82,360.76 749.94,341.81 726.35,338.59 C497.16,308.20 467.49,278.88 428.51,40.40 C424.58,16.80 406.35,0.00 383.82,0.00 C360.94,0.00 342.35,16.80 338.77,40.40 C304.80,279.24 272.27,312.49 42.01,338.59 C18.06,341.45 0.18,360.40 0.18,384.00 C0.18,406.88 17.34,425.83 41.65,429.41 C270.84,461.23 299.80,489.12 338.77,727.60 C343.42,751.55 361.65,768.00 383.82,768.00 Z " fill="currentColor"/>
</svg>
